<?xml version="1.0" encoding="iso-8859-1"?><!DOCTYPE svg PUBLIC "-//W3C//DTD SVG 1.1//EN" "http://www.w3.org/Graphics/SVG/1.1/DTD/svg11.dtd"><svg width="853" height="846" viewBox="0 0 853 846" xmlns="http://www.w3.org/2000/svg" xmlns:xlink="http://www.w3.org/1999/xlink"><svg viewBox="0 0 222.034 222.034" width="222.034" height="222.034" id="boy"><path d="M112.681 195.081V171.77s37.002-1.121 37.002 21.275l-37.002 2.036zM109.511 195.081V171.77s-37.002-1.121-37.002 21.275l37.002 2.036z" fill="#524039"/><path fill="#fdcc9b" d="M96.319 171.769h29.395v32.922H96.319z"/><path d="M96.319 175.646s12.365 7.874 29.395 6.05v-9.928H96.319v3.878z" fill="#fcbc85"/><ellipse cx="53.933" cy="120.719" rx="14.343" ry="16.364" fill="#fcbc85"/><ellipse cx="168.101" cy="120.719" rx="14.343" ry="16.364" fill="#fcbc85"/><path d="M168.043 89.463c0-24.104-17.637-41.741-57.025-41.741-39.39 0-57.026 17.637-57.026 41.741s-4.115 87.597 57.026 87.597c61.14 0 57.025-63.493 57.025-87.597z" fill="#fdcc9b"/><ellipse cx="83.241" cy="116.8" rx="6.173" ry="6.761" fill="#3b2519"/><circle cx="80.55" cy="113.815" r="1.846" fill="#fff"/><path d="M73.366 100.045c2.918 1.46 7.606-4.96 18.335.625 1.955 1.018 3.123-8.708-8.378-8.708-9.957 0-11.72 7.202-9.957 8.083z" fill="#401900"/><ellipse cx="139.555" cy="116.8" rx="6.173" ry="6.761" fill="#3b2519"/><circle cx="136.864" cy="113.815" r="1.847" fill="#fff"/><path d="M148.668 100.045c-2.919 1.46-7.605-4.96-18.335.625-1.956 1.018-3.123-8.708 8.378-8.708 9.957 0 11.72 7.202 9.957 8.083z" fill="#401900"/><path d="M111.017 140.581c-6.1 0-9.774-4.556-9.774-2.352 0 2.205 1.764 6.394 9.774 6.394s9.773-4.189 9.773-6.394c.001-2.205-3.674 2.352-9.773 2.352zM111.017 160.851c-2.11 0-3.381-1.576-3.381-.813s.61 2.211 3.381 2.211c2.77 0 3.38-1.448 3.38-2.211s-1.27.813-3.38.813z" fill="#fcbc85"/><path d="M111.017 155.234c-9.669 0-15.493-3.937-15.493-2.939 0 .998 2.795 4.924 15.493 4.924 12.697 0 15.492-3.926 15.492-4.924 0-.998-5.824 2.939-15.492 2.939z" fill="#f7945e"/><path d="M111.017 184.996v37.038H39.589c0-14.992 37.624-37.038 71.428-37.038zM111.017 184.996v37.038h71.427c0-14.992-37.623-37.038-71.427-37.038z" fill="#81665d"/><path fill="#935125" d="M111.175 222.034L88.126 195.77l8.193 2.204 14.856 5.541z"/><path fill="#935125" d="M111.017 222.034l23.05-26.264-8.194 2.204-14.856 5.541z"/><path d="M110.686 184.996c-7.756 0-15.71 1.171-23.368 3.141 1.69 6.66 6.948 17.029 23.368 17.029 16.419 0 21.677-10.368 23.368-17.029-7.658-1.97-15.612-3.141-23.368-3.141z" fill="#5d2f06"/><path d="M96.319 186.278s0 13.68 14.698 13.68c14.697 0 14.697-13.68 14.697-13.68s-15.248-5.551-29.395 0z" fill="#fdcc9b"/><path d="M193.763 80.562c7.055-6.054 0-15.368 0-15.368 4.409-10.71-5.291-16.298-5.291-16.298.882-11.642-9.259-13.505-9.259-13.505-1.765-10.71-11.112-10.245-11.112-10.245-4.058-11.642-14.344-9.779-14.344-9.779-3.851-9.779-14.966-6.519-14.966-6.519-6.469-8.382-15.495-1.397-15.495-1.397C122.497 3.725 118.806 0 111.017 0c-7.79 0-11.48 3.725-12.28 7.451 0 0-9.026-6.985-15.496 1.397 0 0-11.115-3.26-14.965 6.519 0 0-10.286-1.863-14.343 9.779 0 0-9.348-.466-11.112 10.245 0 0-10.142 1.863-9.26 13.505 0 0-9.7 5.588-5.291 16.298 0 0-7.055 9.313 0 15.368 0 0-10.141 9.301-.882 17.224-6.614 13.804 4.409 21.095 4.409 21.095-4.409 15.501 10.142 18.68 10.142 18.68.478 10.163 11.994 11.456 11.994 11.456s2.557 7.451 10.017 3.042c7.459-4.409-3.051-20.272-3.051-20.272 6.173-6.985 0-18.247 0-18.247 6.966-5.341 0-15.753 0-15.753 9.259-.938 7.377-13.033 7.377-13.033 9.142 1.863 14.12-8.02 14.12-8.02 10.475 4.553 16.341-2.69 16.341-2.69 8.737 6.054 12.28 0 12.28 0s3.543 6.054 12.279 0c0 0 5.866 7.244 16.341 2.69 0 0 4.979 9.883 14.12 8.02 0 0-1.882 12.095 7.378 13.033 0 0-6.966 10.412 0 15.753 0 0-6.173 11.262 0 18.247 0 0-10.511 15.864-3.052 20.272 7.461 4.408 10.018-3.042 10.018-3.042s11.517-1.293 11.993-11.456c0 0 14.551-3.179 10.142-18.68 0 0 11.023-7.291 4.409-21.095 9.26-7.923-.882-17.224-.882-17.224z" fill="#401900"/><path d="M88.603 187.759c.44-2.861-17.12-.752-16.976 7.322.145 8.074 19.401 14.283 24.692 17.223 5.291 2.939 14.698 9.73 14.698 9.73s1.763-6.82-6.467-12.082c-8.231-5.261-16.535-18.371-15.947-22.193z" fill="#614c45"/><path d="M133.589 187.759c-.44-2.861 17.119-.752 16.976 7.322-.145 8.074-19.401 14.283-24.692 17.223-5.291 2.939-14.855 9.73-14.855 9.73s-1.605-6.82 6.625-12.082c8.23-5.261 16.534-18.371 15.946-22.193z" fill="#614c45"/></svg><svg viewBox="0 0 200.796 200.796" width="200.796" height="200.796" id="boy-1" y="644.6089999999999"><path fill="#fdcc9b" d="M85.701 150.53h29.395v32.923H85.701z"/><path d="M85.701 154.408s12.364 7.874 29.395 6.051v-9.929H85.701v3.878z" fill="#fcbc85"/><ellipse cx="43.314" cy="99.48" rx="14.343" ry="16.364" fill="#fcbc85"/><ellipse cx="157.482" cy="99.48" rx="14.343" ry="16.364" fill="#fcbc85"/><path d="M157.424 68.225c0-24.104-17.637-41.74-57.025-41.74-39.39 0-57.026 17.637-57.026 41.74 0 24.104-4.115 87.597 57.026 87.597 61.14-.001 57.025-63.493 57.025-87.597z" fill="#fdcc9b"/><ellipse cx="72.623" cy="95.562" rx="6.173" ry="6.761" fill="#3b2519"/><circle cx="69.931" cy="92.577" r="1.846" fill="#fff"/><path d="M62.748 78.807c2.918 1.46 7.606-4.96 18.335.625 1.955 1.018 3.123-8.708-8.378-8.708-9.957 0-11.721 7.202-9.957 8.083z" fill="#36221e"/><ellipse cx="128.937" cy="95.562" rx="6.173" ry="6.761" fill="#3b2519"/><circle cx="126.245" cy="92.577" r="1.847" fill="#fff"/><path d="M138.049 78.807c-2.919 1.46-7.605-4.96-18.335.625-1.955 1.018-3.123-8.708 8.378-8.708 9.957 0 11.721 7.202 9.957 8.083z" fill="#36221e"/><path d="M100.399 119.343c-6.1 0-9.774-4.557-9.774-2.352 0 2.204 1.764 6.393 9.774 6.393s9.773-4.189 9.773-6.393c0-2.205-3.675 2.352-9.773 2.352zM100.399 139.613c-2.11 0-3.381-1.576-3.381-.813 0 .763.61 2.212 3.381 2.212 2.77 0 3.38-1.449 3.38-2.212-.001-.763-1.271.813-3.38.813z" fill="#fcbc85"/><path d="M100.399 133.996c-9.669 0-15.493-3.938-15.493-2.939 0 .997 2.796 4.924 15.493 4.924 12.697 0 15.492-3.927 15.492-4.924 0-.998-5.825 2.939-15.492 2.939z" fill="#f7945e"/><path d="M100.399 163.758v37.038h71.427c-.001-14.991-37.624-37.038-71.427-37.038zM100.399 163.758v37.038H28.971c0-14.991 37.623-37.038 71.428-37.038z" fill="#98375e"/><path d="M100.661 163.758c-7.19 0-14.552 1.005-21.689 2.721.048.063 7.916 10.213 21.689 10.213 12.755 0 21.232-8.692 22.462-10.03-7.377-1.831-15.012-2.904-22.462-2.904z" fill="#c05371"/><path d="M85.701 165.04s4.299 5.891 14.698 5.891c10.398 0 14.697-5.891 14.697-5.891s-15.249-5.552-29.395 0z" fill="#fdcc9b"/><g fill="#c05371"><path d="M71.117 168.595c-1.245.395-2.475.81-3.693 1.243v30.958h3.693v-32.201zM56.996 200.796h8.792v-30.374a111.227 111.227 0 0 0-8.792 3.711v26.663z"/></g><g fill="#c05371"><path d="M129.659 168.595c1.244.395 2.475.81 3.692 1.243v30.958h-3.692v-32.201zM143.779 200.796h-8.792v-30.374a111.544 111.544 0 0 1 8.792 3.711v26.663z"/></g><path d="M36.171 53.886C39.404 16.306 69.975 0 100.399 0c30.424 0 60.994 16.306 64.227 53.886 3.233 37.581-6.467 67.398-11.695 63.786-5.227-3.611 2.766-52.695-13.526-49.623-25.72 4.85-68.989-16.535-68.989-16.535s.123 12.832-10.031 19.21c-19.731 12.394-7.291 43.337-12.518 46.948-5.23 3.611-14.93-26.205-11.696-63.786zM100.729 146.68v12.529c-16.314 0-25.502-6.004-26.493-8.679-.991-2.675 7.534 1.499 11.796 0s7.495-3.85 14.697-3.85z" fill="#342620"/><path d="M100.399 146.68v12.529c16.313 0 25.502-6.004 26.493-8.679.99-2.675-7.534 1.499-11.796 0-4.263-1.499-7.496-3.85-14.697-3.85z" fill="#342620"/></svg><svg viewBox="0 0 194.917 194.917" width="194.917" height="194.917" id="boy-2" x="595.943" y="644.6089999999999"><path fill="#fdcc9b" d="M82.761 144.651h29.395v32.923H82.761z"/><path d="M82.762 148.529s12.364 7.874 29.394 6.051v-9.929H82.762v3.878z" fill="#fcbc85"/><ellipse cx="40.375" cy="93.602" rx="14.343" ry="16.364" fill="#fcbc85"/><ellipse cx="154.542" cy="93.602" rx="14.343" ry="16.364" fill="#fcbc85"/><path d="M154.484 62.346c0-24.104-17.637-41.741-57.025-41.741-39.39 0-57.026 17.637-57.026 41.741s-4.115 87.597 57.026 87.597c61.141 0 57.025-63.493 57.025-87.597z" fill="#fdcc9b"/><ellipse cx="69.683" cy="89.684" rx="6.173" ry="6.761" fill="#3b2519"/><circle cx="66.992" cy="86.698" r="1.846" fill="#fff"/><path d="M59.808 72.928c2.919 1.459 7.606-4.96 18.335.625 1.956 1.018 3.123-8.708-8.377-8.708-9.958 0-11.722 7.202-9.958 8.083z" fill="#bf904b"/><ellipse cx="125.997" cy="89.684" rx="6.173" ry="6.761" fill="#3b2519"/><circle cx="123.305" cy="86.698" r="1.846" fill="#fff"/><path d="M135.109 72.928c-2.919 1.459-7.607-4.96-18.335.625-1.956 1.018-3.123-8.708 8.377-8.708 9.958 0 11.722 7.202 9.958 8.083z" fill="#bf904b"/><path d="M97.459 113.464c-6.1 0-9.774-4.557-9.774-2.352 0 2.204 1.764 6.394 9.774 6.394s9.773-4.189 9.773-6.394-3.674 2.352-9.773 2.352zM97.459 133.734c-2.11 0-3.381-1.575-3.381-.813 0 .763.609 2.212 3.381 2.212 2.77 0 3.38-1.449 3.38-2.212 0-.762-1.271.813-3.38.813z" fill="#fcbc85"/><path d="M97.459 128.117c-9.669 0-15.493-3.936-15.493-2.939 0 .997 2.796 4.924 15.493 4.924 12.696 0 15.492-3.927 15.492-4.924 0-.997-5.824 2.939-15.492 2.939z" fill="#f7945e"/><path d="M97.459 157.88v37.037h71.427c0-14.991-37.623-37.037-71.427-37.037zM97.459 157.88v37.037H26.031c0-14.991 37.623-37.037 71.428-37.037z" fill="#7a707b"/><path d="M64.393 163.991l17.794 30.926h15.272v-4.461l-21.671-29.861a111.683 111.683 0 0 0-11.395 3.396zM130.524 163.991l-17.794 30.926H97.459v-4.461l21.67-29.861c3.889.933 7.706 2.082 11.395 3.396z" fill="#665d67"/><path d="M72.645 161.399c6.691 11.021 18.784 29.982 24.814 33.518V157.88c-8.246 0-16.716 1.318-24.814 3.519z" fill="#fff"/><path d="M122.272 161.399c-6.691 11.021-18.784 29.982-24.814 33.518V157.88c8.246 0 16.716 1.318 24.814 3.519z" fill="#fff"/><path d="M97.722 157.88c-7.191 0-14.552 1.005-21.689 2.72.048.063 7.916 10.214 21.689 10.214 12.754 0 21.232-8.693 22.462-10.031-7.378-1.831-15.012-2.903-22.462-2.903z" fill="#c7c5c4"/><path d="M82.761 159.162s4.299 5.89 14.697 5.89 14.697-5.891 14.697-5.891-15.248-5.552-29.394.001z" fill="#fdcc9b"/><path d="M97.459 0C12.948 0 27.177 96.444 41.721 96.444c3.709 0 1.168-48.532 7.972-47.649 6.803.883 18.812 3.841 47.767 3.841 28.953 0 40.963-2.958 47.766-3.841 6.803-.882 4.263 47.649 7.972 47.649C167.74 96.444 181.969 0 97.459 0z" fill="#bf904b"/></svg><svg viewBox="0 0 216.212 216.212" width="216.212" height="216.212" id="boy-3" y="222.034"><path d="M48.903 138.801s5.683 11.436 0 25.352c-3.421 8.378 7.161 3.087 10.247 0 0 0 3.087 9.896-3.086 17.735-6.173 7.838 11.613 5.314 17.05-10.841 0 0 2.996 13.829-7.027 23.971-10.023 10.141 42.019 6.173 42.019 6.173v-66.433l-59.203 4.043z" fill="#684b37"/><path d="M168.031 138.801s-5.683 11.436 0 25.352c3.421 8.378-7.161 3.087-10.247 0 0 0-3.086 9.896 3.086 17.735 6.173 7.838-11.613 5.314-17.05-10.841 0 0-2.996 13.829 7.027 23.971 10.023 10.141-42.019 6.173-42.019 6.173v-66.433l59.203 4.043z" fill="#543c2a"/><path fill="#fdcc9b" d="M94.13 165.947h29.395v32.923H94.13z"/><path d="M94.131 169.825s12.365 7.874 29.394 6.051v-9.929H94.131v3.878z" fill="#fcbc85"/><ellipse cx="51.744" cy="114.897" rx="14.343" ry="16.364" fill="#fcbc85"/><ellipse cx="165.912" cy="114.897" rx="14.343" ry="16.364" fill="#fcbc85"/><path d="M165.854 83.641c0-24.104-17.637-41.741-57.026-41.741S51.802 59.537 51.802 83.641s-4.115 87.597 57.026 87.597c61.141.001 57.026-63.493 57.026-87.597z" fill="#fdcc9b"/><ellipse cx="81.052" cy="110.979" rx="6.173" ry="6.761" fill="#3b2519"/><circle cx="78.361" cy="107.994" r="1.846" fill="#fff"/><path d="M71.177 94.224c2.919 1.459 7.606-4.96 18.335.625 1.956 1.018 3.123-8.709-8.377-8.709-9.958 0-11.722 7.202-9.958 8.084z" fill="#684b37"/><ellipse cx="137.366" cy="110.979" rx="6.173" ry="6.761" fill="#3b2519"/><circle cx="134.675" cy="107.994" r="1.846" fill="#fff"/><path d="M146.479 94.224c-2.919 1.459-7.606-4.96-18.335.625-1.956 1.018-3.123-8.709 8.378-8.709 9.957 0 11.721 7.202 9.957 8.084z" fill="#684b37"/><path d="M108.828 134.759c-6.1 0-9.774-4.557-9.774-2.352 0 2.204 1.764 6.394 9.774 6.394s9.774-4.189 9.774-6.394c0-2.204-3.675 2.352-9.774 2.352zM108.828 155.03c-2.11 0-3.381-1.575-3.381-.814 0 .763.61 2.212 3.381 2.212s3.38-1.449 3.38-2.212c0-.762-1.271.814-3.38.814z" fill="#fcbc85"/><path d="M108.828 149.412c-9.668 0-15.493-3.937-15.493-2.939s2.796 4.924 15.493 4.924c12.697 0 15.493-3.927 15.493-4.924s-5.825 2.939-15.493 2.939z" fill="#f7945e"/><path d="M108.828 179.175v37.037H37.401c0-14.991 37.623-37.037 71.427-37.037z" fill="#c1b397"/><path d="M108.828 179.175v37.037h71.427c0-14.991-37.623-37.037-71.427-37.037z" fill="#c1b397"/><path d="M35.341 114.897c-7.387-36.365 1.764-64.06-1.764-68.028-3.527-3.968-9.259 1.323-9.7-1.764-.441-3.086 9.259-7.937 13.524-12.787 4.264-4.85 3.231-19.842 7.199-15.433 3.968 4.41 0 14.551 0 14.551 45.856-63.052 121.695-15.432 130.072 6.614 8.377 22.046 22.046 37.479 16.314 37.479-6.716 0-10.731-9.259-10.731-9.259s6.322 17.637 3.235 43.57c-3.086 25.934-30.863 41.649-26.715 34.793 8.487-14.025 2.023-40.415 2.023-40.415-.441 2.675-4.85 6.584-4.994 1.929-.726-23.626-14.407-30.618-14.407-30.618s4.85 7.496-2.032 7.055c-20.626-1.321-34.123-9.7-34.123-9.7s4.85 9.7 0 9.7c-16.338 0-32.667-9.7-32.667-9.7s-8.205 16.748-7.979 31.335c.081 5.262-5.21-.471-5.21-4.439 0 0-5.779 31.07 4.341 46.462 4.449 6.764-21.727-8.405-26.386-31.345z" fill="#684b37"/><path d="M84.267 182.628l24.561 33.584v-18.518l-11.032-17.771c-4.555.59-9.095 1.512-13.529 2.705zM133.388 182.628l-24.56 33.584v-18.518l11.032-17.771c4.554.59 9.095 1.512 13.528 2.705z" fill="#9d937c"/><path d="M94.131 180.457l14.697 22.718 14.697-22.719s-15.248-5.551-29.394.001z" fill="#fdcc9b"/></svg><svg viewBox="0 0 205.032 205.032" width="205.032" height="205.032" id="boy-4" x="206.363" y="438.246"><path fill="#fdcc9b" d="M85.783 154.767h29.395v32.922H85.783z"/><path d="M85.784 158.645s12.364 7.874 29.394 6.05v-9.928H85.784v3.878z" fill="#fcbc85"/><ellipse cx="43.397" cy="103.717" rx="14.343" ry="16.364" fill="#fcbc85"/><ellipse cx="157.565" cy="103.717" rx="14.343" ry="16.364" fill="#fcbc85"/><path d="M157.507 72.462c0-24.103-17.637-41.741-57.025-41.741-39.39 0-57.026 17.637-57.026 41.741s-4.115 87.597 57.026 87.597c61.14-.001 57.025-63.493 57.025-87.597z" fill="#fdcc9b"/><ellipse cx="72.705" cy="99.799" rx="6.173" ry="6.761" fill="#3b2519"/><circle cx="70.014" cy="96.814" r="1.846" fill="#fff"/><path d="M62.83 83.044c2.919 1.46 7.606-4.96 18.335.625 1.956 1.018 3.123-8.708-8.377-8.708-9.958 0-11.722 7.201-9.958 8.083z" fill="#d96e27"/><ellipse cx="129.019" cy="99.799" rx="6.173" ry="6.761" fill="#3b2519"/><circle cx="126.327" cy="96.814" r="1.846" fill="#fff"/><path d="M138.132 83.044c-2.919 1.46-7.607-4.96-18.335.625-1.956 1.018-3.123-8.708 8.377-8.708 9.958 0 11.721 7.201 9.958 8.083z" fill="#d96e27"/><path d="M100.481 123.579c-6.1 0-9.774-4.556-9.774-2.352 0 2.205 1.764 6.394 9.774 6.394s9.773-4.189 9.773-6.394c.001-2.204-3.674 2.352-9.773 2.352zM100.481 143.85c-2.11 0-3.381-1.576-3.381-.813s.609 2.211 3.381 2.211c2.77 0 3.38-1.448 3.38-2.211s-1.27.813-3.38.813z" fill="#fcbc85"/><path d="M100.481 138.233c-9.669 0-15.493-3.937-15.493-2.939 0 .998 2.796 4.924 15.493 4.924 12.696 0 15.492-3.926 15.492-4.924.001-.998-5.824 2.939-15.492 2.939z" fill="#f7945e"/><path d="M100.481 167.995v37.038H29.054c0-14.992 37.623-37.038 71.427-37.038z" fill="#b4def6"/><path d="M100.481 167.995v37.038h71.427c0-14.992-37.623-37.038-71.427-37.038z" fill="#b4def6"/><path d="M85.783 169.277s4.299 5.332 14.697 5.332 14.697-5.332 14.697-5.332-15.247-5.552-29.394 0z" fill="#fdcc9b"/><path d="M43.396 99.799c5.064 0 9.465-15.138 9.023-24.838-.44-9.701 5.645-16.755 17.594-22.046 0 0 34.229 9.7 58.16 9.7 31.391 0 23.064 36.891 28.771 37.185 5.707.294 11.88-42.035 5.266-66.285 0 0 10.142-5.292 13.228-11.905 3.087-6.614-7.968-.441-17.873 0 0 0 17.604-11.464 18.4-19.4.796-7.936-32.339 8.377-69.23 4.409-36.89-3.97-67.365 16.619-68.865 48.059-1.323 27.717.912 45.121 5.526 45.121z" fill="#d96e27"/><path d="M85.783 165.643l14.697 8.965-15.492 15.433-11.51-17.912c0 .001 7.529-7.408 12.305-6.486zM115.178 165.643l-14.697 8.965 15.493 15.433 11.51-17.912c-.001.001-7.529-7.408-12.306-6.486z" fill="#80cef3"/><path fill="#65c8f2" d="M100.48 174.609v30.423l2.32-28.113z"/><circle cx="97.1" cy="183.207" r="2.278" fill="#65c8f2"/><circle cx="97.1" cy="201.284" r="2.278" fill="#65c8f2"/></svg><svg viewBox="0 0 198.496 198.496" width="198.496" height="198.496" id="boy-5" x="200.796" y="644.6089999999999"><path fill="#fdcc9b" d="M84.55 148.231h29.395v32.922H84.55z"/><path d="M84.551 152.108s12.365 7.874 29.395 6.05v-9.928H84.551v3.878z" fill="#fcbc85"/><ellipse cx="42.164" cy="97.181" rx="14.343" ry="16.364" fill="#fcbc85"/><ellipse cx="156.332" cy="97.181" rx="14.343" ry="16.364" fill="#fcbc85"/><path d="M156.274 65.925c0-24.103-17.637-41.741-57.026-41.741S42.222 41.821 42.222 65.925s-4.115 87.597 57.026 87.597c61.141 0 57.026-63.493 57.026-87.597z" fill="#fdcc9b"/><ellipse cx="71.472" cy="93.262" rx="6.173" ry="6.761" fill="#3b2519"/><circle cx="68.781" cy="90.277" r="1.846" fill="#fff"/><path d="M61.597 76.507c2.919 1.46 7.606-4.96 18.335.625 1.956 1.018 3.123-8.708-8.377-8.708-9.958 0-11.722 7.202-9.958 8.083z" fill="#51362a"/><ellipse cx="127.786" cy="93.262" rx="6.173" ry="6.761" fill="#3b2519"/><circle cx="125.095" cy="90.277" r="1.846" fill="#fff"/><path d="M136.899 76.507c-2.919 1.46-7.606-4.96-18.335.625-1.956 1.018-3.123-8.708 8.378-8.708 9.957 0 11.72 7.202 9.957 8.083z" fill="#51362a"/><path d="M99.248 117.043c-6.1 0-9.774-4.556-9.774-2.352 0 2.205 1.764 6.394 9.774 6.394s9.774-4.189 9.774-6.394-3.675 2.352-9.774 2.352zM99.248 137.313c-2.11 0-3.381-1.576-3.381-.813s.61 2.211 3.381 2.211 3.38-1.448 3.38-2.211-1.271.813-3.38.813z" fill="#fcbc85"/><path d="M99.248 131.696c-9.668 0-15.493-3.937-15.493-2.939 0 .998 2.796 4.924 15.493 4.924 12.697 0 15.493-3.926 15.493-4.924-.001-.998-5.825 2.939-15.493 2.939z" fill="#f7945e"/><path d="M99.248 161.458v37.038H27.821c0-14.992 37.623-37.038 71.427-37.038zM99.248 161.458v37.038h71.427c0-14.992-37.623-37.038-71.427-37.038z" fill="#f7941e"/><path d="M99.248 161.458c-7.19 0-14.552 1.005-21.689 2.72.048.063 7.916 10.214 21.689 10.214 12.754 0 21.233-8.693 22.462-10.03-7.378-1.831-15.012-2.904-22.462-2.904z" fill="#f36c21"/><path d="M84.55 162.74s4.299 5.332 14.697 5.332 14.698-5.332 14.698-5.332-15.248-5.551-29.395 0z" fill="#fdcc9b"/><path d="M146.132 19.041S124.968-7.855 80.98 2.286c-43.987 10.14-47.283 36.596-45.96 62.335 1.323 25.74 4.85 40.84 9.022 38.974 4.172-1.867 2.001-18.857 2.442-22.778.441-3.921 4.409-21.653 31.162-19.007 26.752 2.646 49.296-7.055 49.296-7.055s9.075 11.471 15.047 13.669c11.934 4.391 8.02 33.67 12.696 33.67s27.603-67.621-8.553-83.053z" fill="#51362a"/></svg><svg viewBox="0 0 206.676 206.676" width="206.676" height="206.676" id="girl" x="441.616"><path d="M103.485 43.514v160.004s-90.83 9.412-90.83-34.866c0 0 24.397 3.075 19.402-17.273-6.332-25.796-2.79-67.574 0-90.408 2.79-22.835 71.428-17.457 71.428-17.457z" fill="#330c00"/><path d="M103.191 43.514v160.004s90.83 9.412 90.83-34.866c0 0-24.397 3.075-19.402-17.273 6.332-25.796 2.79-67.574 0-90.408-2.791-22.835-71.428-17.457-71.428-17.457z" fill="#330c00"/><path d="M105.07 179.723v-23.311s37.002-1.121 37.002 21.274l-37.002 2.037zM101.9 179.723v-23.311s-37.002-1.121-37.002 21.274l37.002 2.037z" fill="#00b497"/><path fill="#fdcc9b" d="M88.788 156.41h29.395v32.923H88.788z"/><path d="M88.788 160.288s12.364 7.874 29.395 6.051v-9.929H88.788v3.878z" fill="#fcbc85"/><ellipse cx="46.4" cy="105.36" rx="14.343" ry="16.364" fill="#fcbc85"/><ellipse cx="160.568" cy="105.36" rx="14.343" ry="16.364" fill="#fcbc85"/><path d="M160.51 74.104c0-24.104-17.637-41.74-57.025-41.74-39.39 0-57.026 17.637-57.026 41.74 0 24.104-4.115 87.597 57.026 87.597 61.141 0 57.025-63.492 57.025-87.597z" fill="#fdcc9b"/><ellipse cx="75.709" cy="101.442" rx="6.173" ry="6.761" fill="#3b2519"/><circle cx="73.018" cy="98.457" r="1.846" fill="#fff"/><path d="M65.834 86.865c2.919 1.117 7.606-3.799 18.336.478 1.955.78 3.123-6.668-8.378-6.668-9.958 0-11.722 5.514-9.958 6.19z" fill="#684b37"/><ellipse cx="132.023" cy="101.442" rx="6.173" ry="6.761" fill="#3b2519"/><circle cx="129.332" cy="98.457" r="1.847" fill="#fff"/><path d="M141.135 86.865c-2.919 1.117-7.605-3.799-18.335.478-1.955.78-3.123-6.668 8.378-6.668 9.957 0 11.721 5.514 9.957 6.19z" fill="#684b37"/><path d="M103.485 125.223c-6.1 0-9.774-4.557-9.774-2.352 0 2.204 1.764 6.394 9.774 6.394s9.773-4.189 9.773-6.394-3.674 2.352-9.773 2.352zM103.485 145.493c-2.11 0-3.381-1.576-3.381-.813s.61 2.212 3.381 2.212 3.38-1.449 3.38-2.212-1.271.813-3.38.813z" fill="#fcbc85"/><path d="M103.485 139.876c-9.669 0-15.493-3.938-15.493-2.94 0 .997 2.796 4.924 15.493 4.924 12.697 0 15.493-3.927 15.493-4.924 0-.997-5.825 2.94-15.493 2.94z" fill="#f7945e"/><circle cx="67.771" cy="123.048" r="8.377" fill="#f9aa8d"/><circle cx="140.229" cy="123.048" r="8.377" fill="#f9aa8d"/><path d="M103.485 169.638v37.038H39.112c0-14.991 30.569-37.038 64.373-37.038z" fill="#8fd6e7"/><path d="M103.485 169.638v37.038h64.372c0-14.991-30.568-37.038-64.372-37.038z" fill="#8fd6e7"/><path d="M103.485 204.999v-35.361c-9.417 0-18.551 1.752-26.874 4.544l26.874 30.817zM103.485 204.999v-35.361c9.416 0 18.55 1.752 26.874 4.544l-26.874 30.817z" fill="#f6b1cf"/><path d="M103.485 169.638c-6.849 0-13.545.939-19.9 2.507.905 5.501 4.62 16.787 19.9 16.787 15.279 0 18.994-11.286 19.899-16.787-6.354-1.569-13.05-2.507-19.899-2.507z" fill="#f283b4"/><path d="M88.788 170.92s-.001 13.239 14.697 13.239c14.697 0 14.697-13.239 14.697-13.239s-15.249-5.552-29.394 0z" fill="#fdcc9b"/><path d="M80.992 172.401c.44-2.861-17.119-.752-16.976 7.321.145 8.073 19.401 14.284 24.692 17.224 5.291 2.939 14.697 9.729 14.697 9.729s1.764-6.82-6.467-12.082c-8.229-5.26-16.534-18.37-15.946-22.192z" fill="#3abdaa"/><path d="M125.763 172.401c-.44-2.861 17.119-.752 16.976 7.321-.145 8.073-19.401 14.284-24.692 17.224-5.291 2.939-14.697 9.729-14.697 9.729s-1.764-6.82 6.467-12.082c8.229-5.26 16.534-18.37 15.946-22.192z" fill="#3abdaa"/><path d="M103.485 0C37.346 0 28.528 57.747 28.528 100.303c0 42.557 22.031 67.27 39.243 74.172 0 0-27.485-48.708-13.964-93.8 11.063-36.894 49.678-26 49.678-26s38.613-10.895 49.677 26c13.521 45.092-13.964 93.8-13.964 93.8 17.213-6.902 39.244-31.615 39.244-74.172C178.442 57.747 169.624 0 103.485 0z" fill="#401900"/><path d="M125.85 64.864s-24.824 12.444-46.746 9.946c-21.921-2.499-30.341 20.228-29.003 35.269l-7.316-33.476 13.228-26.485 37.698-19.4 35.621 1.646 16.893 14.668 14.344 17.832 10.083 11.739-4.851 36.126-10.268 12.349c.001 0 9.291-46.35-29.683-60.214z" fill="#401900"/></svg><svg viewBox="0 0 202.413 202.413" width="202.413" height="202.413" id="girl-1" x="648.2919999999999" y="406.854"><path d="M101.422 110.407v92.006H37.049s.002-39.459-7.055-70.891l71.428-21.115z" fill="#1c0d06"/><path d="M100.927 110.407v92.006H165.3s-.002-39.459 7.055-70.891l-71.428-21.115z" fill="#1c0d06"/><path fill="#fdcc9b" d="M86.724 152.148h29.395v32.922H86.724z"/><path d="M86.724 156.025s12.365 7.874 29.395 6.05v-9.928H86.724v3.878z" fill="#fcbc85"/><ellipse cx="44.337" cy="101.098" rx="14.343" ry="16.364" fill="#fcbc85"/><ellipse cx="158.505" cy="101.098" rx="14.343" ry="16.364" fill="#fcbc85"/><path d="M158.447 69.842c0-24.103-17.637-41.741-57.026-41.741S44.396 45.738 44.396 69.842s-4.115 87.597 57.025 87.597c61.141 0 57.026-63.493 57.026-87.597z" fill="#fdcc9b"/><ellipse cx="73.645" cy="97.179" rx="6.173" ry="6.761" fill="#3b2519"/><circle cx="70.954" cy="94.194" r="1.846" fill="#fff"/><path d="M63.77 82.602c2.919 1.118 7.605-3.798 18.335.478 1.956.78 3.123-6.668-8.378-6.668-9.957 0-11.72 5.515-9.957 6.19z" fill="#36221e"/><ellipse cx="129.96" cy="97.179" rx="6.173" ry="6.761" fill="#3b2519"/><circle cx="127.268" cy="94.194" r="1.846" fill="#fff"/><path d="M139.072 82.602c-2.919 1.118-7.606-3.798-18.335.478-1.956.78-3.123-6.668 8.377-6.668 9.958 0 11.722 5.515 9.958 6.19z" fill="#36221e"/><path d="M101.421 120.96c-6.099 0-9.773-4.556-9.773-2.352 0 2.205 1.764 6.394 9.773 6.394 8.011 0 9.774-4.189 9.774-6.394s-3.675 2.352-9.774 2.352zM101.421 141.23c-2.109 0-3.38-1.576-3.38-.813 0 .763.609 2.211 3.38 2.211s3.381-1.448 3.381-2.211c0-.763-1.272.813-3.381.813z" fill="#fcbc85"/><path d="M101.421 135.613c-9.668 0-15.492-3.936-15.492-2.939 0 .997 2.795 4.924 15.492 4.924 12.697 0 15.493-3.926 15.493-4.924 0-.998-5.825 2.939-15.493 2.939z" fill="#f7945e"/><circle cx="65.707" cy="118.784" r="8.377" fill="#f9aa8d"/><circle cx="138.164" cy="118.784" r="8.377" fill="#f9aa8d"/><path d="M101.421 165.375v37.038H37.049c0-14.992 30.568-37.038 64.372-37.038zM101.421 165.375v37.038h64.373c0-14.992-30.569-37.038-64.373-37.038z" fill="#c05371"/><path d="M101.421 165.375v37.038h64.373c0-14.992-30.569-37.038-64.373-37.038z" fill="#c05371"/><path d="M101.421 165.375c-14.605 0-28.594 4.125-39.787 10.009 8.461 12.851 21.058 23.381 39.787 23.381 18.73 0 31.327-10.531 39.787-23.381-11.193-5.884-25.182-10.009-39.787-10.009z" fill="#98375e"/><path d="M101.421 165.375c-11.439 0-22.473 2.56-32.112 6.481 6.077 10.609 16.005 20.386 32.112 20.386 16.107 0 26.035-9.777 32.113-20.386-9.64-3.921-20.673-6.481-32.113-6.481z" fill="#c05371"/><path d="M86.724 166.797s4.3 11.776 14.697 11.776c10.398 0 14.697-11.777 14.697-11.777s-15.248-5.551-29.394.001z" fill="#fdcc9b"/><path d="M101.421 165.375c-8.766 0-17.297 1.503-25.151 3.96 4.164 8.464 11.695 17.379 25.151 17.379 13.457 0 20.987-8.916 25.152-17.379-7.854-2.457-16.387-3.96-25.152-3.96z" fill="#98375e"/><path d="M82.642 167.607c2.454 6.538 7.74 15.217 18.779 15.217 11.04 0 16.326-8.679 18.78-15.217-6.019-1.405-12.334-2.232-18.78-2.232-6.446 0-12.76.827-18.779 2.232z" fill="#c05371"/><path d="M116.118 166.796s-1.91 11.777-14.697 11.777c-12.786 0-14.697-11.776-14.697-11.776s5.732-3.289 14.697-3.289c8.966 0 14.697 3.288 14.697 3.288z" fill="#fdcc9b"/><path d="M101.421.012V0c-.073 0-.141.005-.214.006-.074-.001-.142-.006-.216-.006v.012C34.804.266 23.827 57.886 27.787 114.64c3.969 56.879 37.92 76.72 37.92 76.72-18.517-19.4-13.966-64.198-13.966-64.198 8.079 12.081 19.213 13.047 19.213 13.047-21.207-13.673-20.239-60.843-5.247-63.797 14.142-2.786 33.36-16.896 35.5-18.49 2.139 1.595 21.356 15.704 35.498 18.49 14.992 2.954 15.961 50.124-5.246 63.797 0 0 11.134-.966 19.214-13.047 0 0 4.551 44.797-13.968 64.198 0 0 33.952-19.841 37.921-76.72C178.585 57.886 167.609.266 101.421.012z" fill="#342620"/></svg><svg viewBox="0 0 219.582 219.582" width="219.582" height="219.582" id="girl-2" x="222.034"><path d="M55.626 154.767c-1.764.441.87 18.505 8.377 27.777 0 0-.488-13.107 3.115-17.637 0 0 12.628 6.467 5.639 20.87 0 0 7.561.796 11.528-11.359 0 0-3.053 11.427 7.513 17.934 10.565 6.507 17.993 2.459 17.993 2.459v-60.18H52.775l2.851 20.136zM164.055 154.767c1.764.441-.87 18.505-8.377 27.777 0 0 .488-13.107-3.115-17.637 0 0-12.628 6.467-5.639 20.87 0 0-7.561.796-11.529-11.359 0 0 3.053 11.427-7.512 17.934-10.565 6.507-17.993 2.459-17.993 2.459v-60.18h57.016l-2.851 20.136zM113.239 0C61.426 0 74.371 51.591 74.371 51.591h77.736S165.054 0 113.239 0z" fill="#371c06"/><path fill="#fdcc9b" d="M95.162 169.316h29.395v32.923H95.162z"/><path d="M95.162 173.194s12.364 7.874 29.395 6.051v-9.929H95.162v3.878z" fill="#fcbc85"/><ellipse cx="52.775" cy="118.267" rx="14.343" ry="16.364" fill="#fcbc85"/><ellipse cx="166.943" cy="118.267" rx="14.343" ry="16.364" fill="#fcbc85"/><path d="M166.885 87.011c0-24.104-17.637-41.74-57.025-41.74-39.39 0-57.026 17.637-57.026 41.74 0 24.104-4.115 87.597 57.026 87.597 61.14-.001 57.025-63.493 57.025-87.597z" fill="#fdcc9b"/><ellipse cx="82.083" cy="114.349" rx="6.173" ry="6.761" fill="#3b2519"/><circle cx="79.392" cy="111.363" r="1.846" fill="#fff"/><path d="M72.208 99.771c2.919 1.117 7.606-3.799 18.335.478 1.956.78 3.124-6.668-8.377-6.668-9.958 0-11.722 5.515-9.958 6.19z" fill="#4c2d19"/><ellipse cx="138.397" cy="114.349" rx="6.173" ry="6.761" fill="#3b2519"/><circle cx="135.706" cy="111.363" r="1.847" fill="#fff"/><path d="M147.51 99.771c-2.919 1.117-7.605-3.799-18.335.478-1.956.78-3.123-6.668 8.378-6.668 9.957 0 11.72 5.515 9.957 6.19z" fill="#4c2d19"/><path d="M109.859 138.129c-6.1 0-9.774-4.557-9.774-2.352 0 2.204 1.764 6.393 9.774 6.393s9.773-4.189 9.773-6.393c.001-2.205-3.673 2.352-9.773 2.352zM109.859 158.4c-2.109 0-3.381-1.576-3.381-.814s.61 2.212 3.381 2.212 3.38-1.449 3.38-2.212-1.27.814-3.38.814z" fill="#fcbc85"/><path d="M109.859 152.782c-9.668 0-15.493-3.938-15.493-2.939 0 .997 2.796 4.924 15.493 4.924 12.697 0 15.492-3.927 15.492-4.924 0-.998-5.824 2.939-15.492 2.939z" fill="#f7945e"/><circle cx="74.145" cy="135.954" r="8.378" fill="#f9aa8d"/><circle cx="146.603" cy="135.954" r="8.377" fill="#f9aa8d"/><path d="M109.859 182.544v37.038H45.486c0-14.991 30.569-37.038 64.373-37.038z" fill="#fdc16e"/><path d="M109.859 182.544v37.038h64.372c0-14.991-30.568-37.038-64.372-37.038z" fill="#fdc16e"/><path d="M95.162 183.826l14.697 26.275c.879 0 14.697-26.275 14.697-26.275s-15.248-5.551-29.394 0z" fill="#fdcc9b"/><path fill="#f68e4d" d="M109.859 219.582v-9.48l-4.85-7.275zM109.859 219.582v-9.48l4.459-7.275z"/><path d="M89.136 219.582l-3.04-33.805s-6.456-.273-14.215 5.365l-6.444 28.44h23.699zM130.582 219.582l3.04-33.805s6.456-.273 14.215 5.365l6.445 28.44h-23.7z" fill="#4d423e"/><path d="M109.859 18.521c-90.83 0-78.926 99.648-67.021 123.649 11.905 24 0 40.373 0 40.373 20.282-8.377 16.461-40.373 16.461-40.373 6.525 7.539 18.373 10.053 18.373 10.053-17.636-7.393-24.854-62.264 4.029-64.478 28.884-2.214 60.344-12.787 60.344-12.787s20.068 55.321 6.066 77.265c0 0 9.779-6.658 14.644-17.049 0 0-4.396 30.614 15.005 47.369 0 0-10.141-29.041 0-47.369 10.142-18.327 22.929-116.653-67.901-116.653z" fill="#4c2d19"/><path d="M95.162 179.519l8.535 8.929 6.162 21.654-8.818-13.227-9.921 5.365-8.597-15.462c0-.001 7.421-6.757 12.639-7.259z" fill="#f68e4d"/><path d="M124.556 179.519l-8.536 8.929-6.161 21.654 8.818-13.227 9.92 5.365 8.598-15.462c0-.001-7.421-6.757-12.639-7.259z" fill="#f68e4d"/></svg><svg viewBox="0 0 204.348 204.348" width="204.348" height="204.348" id="girl-3" x="411.395" y="438.246"><path d="M183.045 111.688s12.558 9.032 4.749 22.759c0 0 14.423 9.875 3.399 26.029 0 0 10.564 15.359 0 25.354 0 0 2.535 11.932-11.611 12.492 0 0-.592 6.026-12.936 6.026l-64.373-14.991v-80.202l80.772 2.533zM21.303 111.688s-12.558 9.032-4.748 22.759c0 0-14.423 9.875-3.4 26.029 0 0-10.564 15.359 0 25.354 0 0-2.535 11.932 11.611 12.492 0 0 .592 6.026 12.936 6.026l64.373-14.991v-80.202l-80.772 2.533z" fill="#86461b"/><path d="M58.129 139.533s-8.173 12.392 1.204 17.219c0 0-7.951 7.275-2.252 13.792 0 0-15.267 4.467-5.566 18.033s50.759 7.393 50.759 7.393v-64.815l-44.145 8.378z" fill="#703910"/><path d="M146.219 139.533s8.174 12.392-1.204 17.219c0 0 7.952 7.275 2.252 13.792 0 0 15.267 4.467 5.566 18.033-9.7 13.566-50.759 7.393-50.759 7.393v-64.815l44.145 8.378z" fill="#703910"/><path fill="#fdcc9b" d="M87.377 154.083h29.395v32.923H87.377z"/><path d="M87.377 157.961s12.365 7.874 29.395 6.051v-9.929H87.377v3.878z" fill="#fcbc85"/><ellipse cx="44.99" cy="103.033" rx="14.343" ry="16.364" fill="#fcbc85"/><ellipse cx="159.158" cy="103.033" rx="14.343" ry="16.364" fill="#fcbc85"/><path d="M159.1 71.777c0-24.104-17.637-41.74-57.025-41.74-39.39 0-57.026 17.637-57.026 41.74 0 24.104-4.115 87.597 57.026 87.597 61.14 0 57.025-63.492 57.025-87.597z" fill="#fdcc9b"/><ellipse cx="74.299" cy="99.115" rx="6.173" ry="6.761" fill="#3b2519"/><circle cx="71.607" cy="96.13" r="1.846" fill="#fff"/><path d="M64.424 84.538c2.918 1.117 7.605-3.799 18.334.478 1.956.78 3.124-6.668-8.377-6.668-9.957-.001-11.72 5.514-9.957 6.19z" fill="#86461b"/><ellipse cx="130.613" cy="99.115" rx="6.173" ry="6.761" fill="#3b2519"/><circle cx="127.921" cy="96.13" r="1.847" fill="#fff"/><path d="M139.725 84.538c-2.919 1.117-7.605-3.799-18.335.478-1.955.78-3.123-6.668 8.378-6.668 9.957-.001 11.721 5.514 9.957 6.19z" fill="#86461b"/><path d="M102.075 122.895c-6.1 0-9.774-4.557-9.774-2.352 0 2.204 1.764 6.393 9.774 6.393s9.773-4.189 9.773-6.393c0-2.204-3.674 2.352-9.773 2.352zM102.075 143.166c-2.109 0-3.381-1.576-3.381-.813 0 .763.61 2.212 3.381 2.212s3.381-1.449 3.381-2.212c-.001-.763-1.272.813-3.381.813z" fill="#fcbc85"/><path d="M102.075 137.549c-9.668 0-15.493-3.938-15.493-2.939 0 .997 2.796 4.924 15.493 4.924 12.697 0 15.492-3.927 15.492-4.924 0-.999-5.824 2.939-15.492 2.939z" fill="#f7945e"/><circle cx="66.361" cy="120.72" r="8.378" fill="#f9aa8d"/><circle cx="138.818" cy="120.72" r="8.377" fill="#f9aa8d"/><path d="M102.075 167.31v37.038H37.702c0-14.991 30.569-37.038 64.373-37.038zM102.075 167.31v37.038h64.372c0-14.991-30.569-37.038-64.372-37.038z" fill="#f7acba"/><path d="M101.883 167.31c-7.271 0-14.715 1.005-21.933 2.721.049.063 8.006 10.213 21.933 10.213 12.898 0 21.472-8.692 22.715-10.03-7.46-1.831-15.181-2.904-22.715-2.904z" fill="#f5919d"/><path d="M87.377 168.592s4.299 5.332 14.697 5.332 14.697-5.332 14.697-5.332-15.247-5.551-29.394 0z" fill="#fdcc9b"/><path d="M180.861 75.051c16.453 14.07 3.347 27.982 3.347 27.982 5.464 16.364-13.055 20.406-13.055 20.406s-6.762 15.652-16.021 11.008c-9.26-4.645-4.409-20.047-4.409-20.047-5.908-6.394.44-13.228.44-13.228-7.055-6.614-.882-19.842-.882-19.842-7.055-2.204-9.259-11.464-9.259-11.464-11.023-.441-14.11-15.433-14.11-15.433s-3.527 12.787-17.637 8.378c0 0-12.786 11.464-22.046 2.646 0 0-13.228 9.259-20.282-.882 0 0 0 10.582-14.551 12.786 0 0 5.732 14.992-1.764 21.605 0 0 8.818 15.873 1.323 22.487 0 0 13.228 11.023 6.173 18.078s-18.519 1.764-18.96-8.378c0 0-16.755 2.205-15.873-16.314 0 0-12.346-16.313-2.204-29.542 0 0-8.378-15.873 3.526-27.777 0 0-1.322-22.928 14.992-27.778 0 0 6.613-19.842 24.25-16.755 0 0 11.464-16.755 29.542-8.378 0 0 19.842-11.464 31.306 1.764 0 0 11.554-7.495 20.106 6.614 0 0 14.727 2.792 16.049 17.049 0 0 20.574 4.409 14.992 22.046.002.001 15.389 5.332 5.007 22.969z" fill="#86461b"/><path d="M70.58 173.536c-19.172 7.632-32.879 20.785-32.879 30.813h41.32l-8.441-30.813z" fill="#d85b72"/><path d="M82.38 204.348s-8.231-24.251-9.112-33.805c0 0-4.482.273-9.554 4.557 0 0 6.467 20.576 10.582 29.101l8.084.147z" fill="#ba396a"/><path d="M133.569 173.536c19.172 7.632 32.878 20.785 32.878 30.813h-41.319l8.441-30.813z" fill="#d85b72"/><path d="M121.769 204.348s8.23-24.251 9.112-33.805c0 0 4.482.273 9.554 4.557 0 0-6.467 20.576-10.582 29.101l-8.084.147z" fill="#ba396a"/></svg><svg viewBox="0 0 206.363 206.363" width="206.363" height="206.363" id="girl-4" y="438.246"><path d="M104.516 201.925V96.721H53.213s-9.802 43.534 12.891 64.669c-.001 0-10.857 40.535 38.412 40.535zM105.505 201.925V96.721h51.302s9.803 43.534-12.891 64.669c0 0 10.857 40.535-38.411 40.535z" fill="#9e773d"/><path fill="#fdcc9b" d="M89.818 156.098h29.395v32.923H89.818z"/><path d="M89.818 159.976s12.364 7.874 29.395 6.051v-9.929H89.818v3.878z" fill="#fcbc85"/><ellipse cx="47.431" cy="105.048" rx="14.343" ry="16.364" fill="#fcbc85"/><ellipse cx="161.599" cy="105.048" rx="14.343" ry="16.364" fill="#fcbc85"/><path d="M161.541 73.793c0-24.103-17.637-41.741-57.025-41.741-39.39 0-57.026 17.637-57.026 41.741s-4.115 87.597 57.026 87.597c61.14 0 57.025-63.493 57.025-87.597z" fill="#fdcc9b"/><ellipse cx="76.74" cy="101.13" rx="6.173" ry="6.761" fill="#3b2519"/><circle cx="74.048" cy="98.145" r="1.846" fill="#fff"/><path d="M66.864 86.553c2.919 1.117 7.606-3.798 18.335.478 1.956.78 3.124-6.668-8.377-6.668-9.958 0-11.722 5.515-9.958 6.19z" fill="#bf904b"/><ellipse cx="133.054" cy="101.13" rx="6.173" ry="6.761" fill="#3b2519"/><circle cx="130.362" cy="98.145" r="1.847" fill="#fff"/><path d="M142.166 86.553c-2.919 1.117-7.605-3.798-18.335.478-1.956.78-3.123-6.668 8.378-6.668 9.957 0 11.721 5.515 9.957 6.19z" fill="#bf904b"/><path d="M104.516 124.91c-6.1 0-9.774-4.557-9.774-2.351 0 2.204 1.764 6.394 9.774 6.394s9.773-4.189 9.773-6.394-3.674 2.351-9.773 2.351zM104.516 145.181c-2.109 0-3.381-1.575-3.381-.814 0 .763.61 2.212 3.381 2.212s3.38-1.449 3.38-2.212c-.001-.761-1.271.814-3.38.814z" fill="#fcbc85"/><path d="M104.516 139.564c-9.668 0-15.493-3.937-15.493-2.939s2.796 4.924 15.493 4.924c12.697 0 15.492-3.927 15.492-4.924s-5.825 2.939-15.492 2.939z" fill="#f7945e"/><circle cx="68.802" cy="122.735" r="8.378" fill="#f9aa8d"/><circle cx="141.259" cy="122.735" r="8.377" fill="#f9aa8d"/><path d="M104.516 169.326v37.037H40.142c0-14.991 30.569-37.037 64.374-37.037zM104.516 169.326v37.037h64.372c0-14.991-30.569-37.037-64.372-37.037z" fill="#9d777b"/><path d="M71.804 176.055l17.439 30.309h15.272v-4.461L83.003 172.26a88.978 88.978 0 0 0-11.199 3.795zM137.226 176.055l-17.44 30.309h-15.271v-4.461l21.512-29.643a88.978 88.978 0 0 1 11.199 3.795z" fill="#7b5c60"/><path d="M80.621 172.892c5.63 10.071 18.247 33.472 23.895 33.472v-37.037c-8.297-.001-16.391 1.339-23.895 3.565z" fill="#fff"/><path d="M128.409 172.892c-5.629 10.071-18.246 33.472-23.894 33.472v-37.037c8.296-.001 16.391 1.339 23.894 3.565z" fill="#fff"/><path d="M149.637 20.706S129.293-6.484 89.023 1.452C48.752 9.389 24.454 42.759 25.296 76.291c1.323 52.661 33.371 63.007 40.967 71.719-5.94-12.816-14.658-37.356-12.894-53.641 1.326-12.245 7.056-16.344 7.056-16.344 12.867 6.708 19.841-7.721 19.841-7.721 1.764 13.421 27.631-6.389 27.631-6.389s-2.939 8.394 6.394 11.068c9.333 2.675 26.97-17.903 26.97-17.903s.294 23.414 12.199 23.281c0 0 3.656 7.225 2.774 20.767-.882 13.542-6.596 32.011-10.913 44.239 11.225-6.364 35.769-21.05 35.769-61.644-.001-40.592-9.408-59.343-31.453-63.017z" fill="#bf904b"/><path d="M89.818 170.747s4.299 11.777 14.697 11.777 14.697-11.777 14.697-11.777-15.247-5.552-29.394 0z" fill="#fdcc9b"/><path d="M85.735 171.558c2.455 6.537 7.74 15.217 18.78 15.217 11.039 0 16.325-8.68 18.779-15.217-6.019-1.405-12.334-2.232-18.779-2.232-6.446 0-12.76.826-18.78 2.232z" fill="#c7c5c4"/><path d="M119.213 170.747s-1.911 11.777-14.697 11.777c-12.787 0-14.697-11.777-14.697-11.777s5.731-3.288 14.697-3.288c8.964 0 14.697 3.288 14.697 3.288z" fill="#fdcc9b"/></svg><svg viewBox="0 0 203.736 203.736" width="203.736" height="203.736" id="girl-5" x="648.2919999999999"><path d="M101.867 66.139v131.395h60.26s11.449-59.365 11.168-95.113c-.281-35.748-71.428-36.282-71.428-36.282zM101.867 66.139v131.395H41.609s-11.449-59.365-11.168-95.113c.28-35.748 71.426-36.282 71.426-36.282z" fill="#543c2a"/><path fill="#fdcc9b" d="M87.17 153.47h29.395v32.923H87.17z"/><path d="M87.17 157.348s12.365 7.874 29.395 6.051v-9.929H87.17v3.878z" fill="#fcbc85"/><ellipse cx="44.784" cy="102.42" rx="14.343" ry="16.364" fill="#fcbc85"/><ellipse cx="158.952" cy="102.42" rx="14.343" ry="16.364" fill="#fcbc85"/><path d="M158.894 71.165c0-24.104-17.637-41.741-57.026-41.741S44.843 47.061 44.843 71.165s-4.115 87.597 57.025 87.597c61.141 0 57.026-63.493 57.026-87.597z" fill="#fdcc9b"/><ellipse cx="74.092" cy="98.502" rx="6.173" ry="6.761" fill="#3b2519"/><circle cx="71.401" cy="95.517" r="1.846" fill="#fff"/><path d="M64.217 83.925c2.919 1.117 7.605-3.798 18.335.478 1.956.78 3.123-6.668-8.378-6.668-9.957 0-11.721 5.515-9.957 6.19z" fill="#684b37"/><ellipse cx="130.406" cy="98.502" rx="6.173" ry="6.761" fill="#3b2519"/><circle cx="127.715" cy="95.517" r="1.846" fill="#fff"/><path d="M139.519 83.925c-2.919 1.117-7.606-3.798-18.335.478-1.956.78-3.123-6.668 8.377-6.668 9.958 0 11.721 5.515 9.958 6.19z" fill="#684b37"/><path d="M101.867 122.283c-6.099 0-9.773-4.557-9.773-2.352 0 2.204 1.764 6.394 9.773 6.394 8.011 0 9.774-4.189 9.774-6.394.001-2.205-3.674 2.352-9.774 2.352zM101.867 142.553c-2.109 0-3.38-1.575-3.38-.814 0 .763.61 2.212 3.38 2.212 2.771 0 3.381-1.449 3.381-2.212 0-.761-1.27.814-3.381.814z" fill="#fcbc85"/><path d="M101.867 136.936c-9.668 0-15.492-3.937-15.492-2.939s2.795 4.924 15.492 4.924 15.493-3.927 15.493-4.924-5.825 2.939-15.493 2.939z" fill="#f7945e"/><circle cx="66.154" cy="120.108" r="8.377" fill="#f9aa8d"/><circle cx="138.611" cy="120.108" r="8.377" fill="#f9aa8d"/><path d="M101.867 166.699v37.037H37.495c0-14.991 30.569-37.037 64.372-37.037zM101.867 166.699v37.037h64.373c0-14.991-30.568-37.037-64.373-37.037z" fill="#f5a860"/><path d="M89.6 167.651c-.189.027-.379.065-.569.094a87.77 87.77 0 0 0-11.543 2.653l24.38 33.338v-18.518L90.87 167.501c-.421.059-.85.086-1.27.15z" fill="#f18b45"/><path d="M114.135 167.651c.19.027.38.065.57.094a87.77 87.77 0 0 1 11.543 2.653l-24.381 33.338v-18.518l10.998-17.716c.421.058.851.085 1.27.149z" fill="#f18b45"/><path d="M101.867 0C35.436 0 27.651 46.991 30.441 102.42c2.79 55.43 49.824 82.797 49.824 82.797S27.56 109.79 71.401 43.651c0 0-8.232 14.157-7.786 26.015 0 0 10.328-3.527 38.253-3.527 27.926 0 38.253 3.527 38.253 3.527.447-11.858-7.785-26.015-7.785-26.015 43.841 66.138-8.865 141.566-8.865 141.566s47.035-27.367 49.825-82.797C176.085 46.991 168.3 0 101.867 0z" fill="#684b37"/><path d="M87.17 167.981l14.697 24.408 14.697-24.409c.001 0-15.247-5.552-29.394.001z" fill="#fdcc9b"/></svg><svg viewBox="0 0 206.612 206.612" width="206.612" height="206.612" id="girl-6" x="441.616" y="206.676"><path d="M31.276 122.205s8.933 18.483 6.727 34.142c-2.204 15.659-14.607 23.035-19.898 13.228 0 0-26.014 37.038 85.98 37.038V105.298l-72.809 16.907z" fill="#d65128"/><path d="M177.592 117.629s-11.189 23.06-8.983 38.718c2.204 15.659 14.607 23.035 19.898 13.228 0 0 26.014 37.038-85.98 37.038V105.298l75.065 12.331z" fill="#d65128"/><path fill="#fdcc9b" d="M89.388 156.347h29.395v32.922H89.388z"/><path d="M89.388 160.225s12.364 7.874 29.394 6.05v-9.928H89.388v3.878z" fill="#fcbc85"/><ellipse cx="47.001" cy="105.298" rx="14.343" ry="16.364" fill="#916a50"/><ellipse cx="161.169" cy="105.298" rx="14.343" ry="16.364" fill="#916a50"/><path d="M161.111 74.042c0-24.104-17.637-41.741-57.025-41.741-39.39 0-57.026 17.637-57.026 41.741s-4.115 87.597 57.026 87.597c61.14-.001 57.025-63.493 57.025-87.597z" fill="#fdcc9b"/><ellipse cx="76.31" cy="101.379" rx="6.173" ry="6.761" fill="#3b2519"/><circle cx="73.618" cy="98.394" r="1.846" fill="#fff"/><path d="M66.434 86.802c2.919 1.118 7.606-3.798 18.335.478 1.956.78 3.124-6.668-8.377-6.668-9.958 0-11.722 5.515-9.958 6.19z" fill="#d96e27"/><ellipse cx="132.624" cy="101.379" rx="6.173" ry="6.761" fill="#3b2519"/><circle cx="129.932" cy="98.394" r="1.847" fill="#fff"/><path d="M141.736 86.802c-2.919 1.118-7.605-3.798-18.335.478-1.956.78-3.123-6.668 8.378-6.668 9.957 0 11.721 5.515 9.957 6.19z" fill="#d96e27"/><path d="M104.086 125.159c-6.1 0-9.774-4.556-9.774-2.352 0 2.205 1.764 6.394 9.774 6.394s9.773-4.189 9.773-6.394c0-2.204-3.674 2.352-9.773 2.352zM104.086 145.43c-2.109 0-3.381-1.576-3.381-.813 0 .763.61 2.211 3.381 2.211s3.38-1.448 3.38-2.211c-.001-.763-1.271.813-3.38.813z" fill="#fcbc85"/><path d="M104.086 139.813c-9.668 0-15.493-3.936-15.493-2.939 0 .997 2.796 4.924 15.493 4.924 12.697 0 15.492-3.926 15.492-4.924 0-.998-5.825 2.939-15.492 2.939z" fill="#f7945e"/><circle cx="68.372" cy="122.984" r="8.378" fill="#f9aa8d"/><circle cx="140.829" cy="122.984" r="8.377" fill="#f9aa8d"/><path d="M104.086 169.575v37.038H39.712c0-14.992 30.569-37.038 64.374-37.038zM104.086 169.575v37.038h64.372c0-14.992-30.569-37.038-64.372-37.038z" fill="#f6a2b1"/><path d="M89.388 170.857l14.697 26.276c.879 0 14.697-26.276 14.697-26.276s-15.247-5.552-29.394 0z" fill="#fdcc9b"/><path d="M89.388 166.55l8.535 8.928 6.162 21.655-8.818-13.228-9.921 5.365-8.597-15.461c.001-.001 7.421-6.757 12.639-7.259zM118.783 166.55l-8.536 8.928-6.161 21.655 8.818-13.228 9.92 5.365 8.598-15.461c-.001-.001-7.421-6.757-12.639-7.259z" fill="#f38191"/><path fill="#f38191" d="M104.086 206.612v-9.479l-4.851-7.275zM104.086 206.612v-9.479l4.458-7.275z"/><path d="M146.826 17.016S111.513-9.659 68.372 3.789C27.35 16.575 26.483 70.81 27.805 101.381c1.323 30.571 11.907 34.244 22.487 29.981 13.994-5.638 0-23.222 0-23.222 6.614-6.761 3.969-19.206 3.969-19.206 10.361-.384 14.11-17.244 14.11-17.244 20.156 7.769 25.939-7.496 25.939-7.496 18.886 10.141 33.774-7.937 33.774-7.937s9.303 19.342 21.121 17.196c0 0-3.107 18.597 4.262 21.165 0 0-7.895 23.81 2.446 31.085 10.341 7.275 27.096.042 26.655-36.77-.44-36.811-7.056-75.445-35.742-71.917z" fill="#d96e27"/></svg><svg viewBox="0 0 207.964 207.964" width="207.964" height="207.964" id="girl-7" x="216.212" y="222.034"><path d="M40.634 148.18c6.989 19.495-3.968 55.375-3.968 55.375h63.346V93.325l-69.52 13.325c.001-.001 3.823 23.903 10.142 41.53zM159.452 148.18c-6.989 19.495 3.969 55.375 3.969 55.375h-63.347V93.325l69.519 13.325c0-.001-3.821 23.903-10.141 41.53z" fill="#432b1f"/><path fill="#fdcc9b" d="M85.315 157.699h29.395v32.922H85.315z"/><path d="M85.315 161.577s12.365 7.874 29.395 6.05v-9.928H85.315v3.878z" fill="#fcbc85"/><ellipse cx="42.928" cy="106.649" rx="14.343" ry="16.364" fill="#fcbc85"/><ellipse cx="157.096" cy="106.649" rx="14.343" ry="16.364" fill="#fcbc85"/><path d="M157.038 75.394c0-24.103-17.637-41.741-57.025-41.741-39.39 0-57.026 17.637-57.026 41.741s-4.115 87.597 57.026 87.597c61.14-.001 57.025-63.493 57.025-87.597z" fill="#fdcc9b"/><ellipse cx="72.237" cy="102.731" rx="6.173" ry="6.761" fill="#3b2519"/><circle cx="69.545" cy="99.746" r="1.846" fill="#fff"/><path d="M62.362 88.154c2.918 1.118 7.606-3.798 18.334.478 1.956.78 3.124-6.668-8.377-6.668-9.957 0-11.721 5.515-9.957 6.19z" fill="#51362a"/><ellipse cx="128.55" cy="102.731" rx="6.173" ry="6.761" fill="#3b2519"/><circle cx="125.859" cy="99.746" r="1.847" fill="#fff"/><path d="M137.663 88.154c-2.919 1.118-7.605-3.798-18.335.478-1.955.78-3.123-6.668 8.378-6.668 9.957 0 11.72 5.515 9.957 6.19z" fill="#51362a"/><path d="M100.012 126.511c-6.1 0-9.774-4.556-9.774-2.352 0 2.205 1.764 6.394 9.774 6.394s9.773-4.189 9.773-6.394c.001-2.204-3.673 2.352-9.773 2.352zM100.012 146.782c-2.109 0-3.381-1.576-3.381-.813s.61 2.211 3.381 2.211 3.381-1.448 3.381-2.211-1.271.813-3.381.813z" fill="#fcbc85"/><path d="M100.012 141.165c-9.668 0-15.493-3.936-15.493-2.939 0 .998 2.796 4.924 15.493 4.924 12.697 0 15.492-3.926 15.492-4.924 0-.998-5.824 2.939-15.492 2.939z" fill="#f7945e"/><circle cx="64.298" cy="124.336" r="8.378" fill="#f9aa8d"/><circle cx="136.756" cy="124.336" r="8.377" fill="#f9aa8d"/><path d="M100.012 170.927v37.038H35.639c0-14.992 30.569-37.038 64.373-37.038zM100.012 170.927v37.038h64.372c0-14.992-30.568-37.038-64.372-37.038z" fill="#694b74"/><path d="M99.821 170.927c-7.271 0-14.715 1.005-21.933 2.72.049.063 8.006 10.214 21.933 10.214 12.898 0 21.472-8.693 22.715-10.03-7.46-1.831-15.181-2.904-22.715-2.904z" fill="#563c60"/><path d="M85.315 172.209s4.299 5.332 14.697 5.332 14.697-5.332 14.697-5.332-15.248-5.552-29.394 0z" fill="#fdcc9b"/><path d="M151.747 24.541C114.709-19.552 44.162-1.915 28.584 58.933c-15.577 60.847 12.05 89.247 12.05 89.247-10.594-35.859 14.11-72.933 35.274-73.374 21.165-.441 54.675-12.346 54.675-12.346s5.625 28.622 23.81 39.132c13.669 7.9 8.477 31.122 4.949 46.588 13.227-5.031 52.37-105.561-7.595-123.639z" fill="#51362a"/></svg><svg viewBox="0 0 203.118 203.118" width="203.118" height="203.118" id="man" x="648.2919999999999" y="203.736"><path fill="#fdcc9b" d="M86.861 152.853h29.395v32.923H86.861z"/><path d="M86.862 156.73s12.364 7.874 29.394 6.051v-9.929H86.862v3.878z" fill="#fcbc85"/><ellipse cx="44.475" cy="101.803" rx="14.343" ry="16.364" fill="#fcbc85"/><ellipse cx="158.643" cy="101.803" rx="14.343" ry="16.364" fill="#fcbc85"/><path d="M158.585 70.547c0-24.103-17.637-41.74-57.025-41.74-39.39 0-57.026 17.637-57.026 41.74 0 24.104-4.115 87.597 57.026 87.597 61.14 0 57.025-63.493 57.025-87.597z" fill="#fdcc9b"/><ellipse cx="73.783" cy="97.885" rx="6.173" ry="6.761" fill="#3b2519"/><circle cx="71.092" cy="94.899" r="1.846" fill="#fff"/><path d="M63.908 81.129c2.919 1.46 7.606-4.96 18.335.625 1.956 1.018 3.123-8.708-8.377-8.708-9.958 0-11.721 7.202-9.958 8.083z" fill="#4c2d19"/><ellipse cx="130.098" cy="97.885" rx="6.173" ry="6.761" fill="#3b2519"/><circle cx="127.406" cy="94.899" r="1.846" fill="#fff"/><path d="M139.21 81.129c-2.919 1.46-7.607-4.96-18.335.625-1.956 1.018-3.123-8.708 8.377-8.708 9.958 0 11.722 7.202 9.958 8.083z" fill="#4c2d19"/><path d="M101.56 121.665c-6.1 0-9.774-4.557-9.774-2.352 0 2.204 1.764 6.394 9.774 6.394s9.773-4.189 9.773-6.394-3.675 2.352-9.773 2.352zM101.56 141.936c-2.11 0-3.381-1.576-3.381-.813s.609 2.212 3.381 2.212c2.77 0 3.38-1.449 3.38-2.212s-1.271.813-3.38.813z" fill="#fcbc85"/><path d="M101.56 136.318c-9.669 0-15.493-3.938-15.493-2.939 0 .997 2.796 4.924 15.493 4.924 12.696 0 15.492-3.927 15.492-4.924 0-.998-5.824 2.939-15.492 2.939z" fill="#f7945e"/><path d="M101.56 166.08v37.038H30.132c0-14.991 37.623-37.038 71.428-37.038zM101.56 166.08v37.038h71.427c-.001-14.991-37.624-37.038-71.427-37.038z" fill="#f6a4b7"/><path d="M86.861 167.362s4.299 5.332 14.697 5.332 14.697-5.332 14.697-5.332-15.247-5.551-29.394 0z" fill="#fdcc9b"/><path d="M80.836 203.118l-3.04-33.805s-6.456-.891-14.215 4.746l-6.445 29.059h23.7zM101.559 172.694v30.424H91.418l1.984-13.999-5.842-6.174zM122.282 203.118l3.04-33.805s6.456-.891 14.215 4.746l6.444 29.059h-23.699zM101.56 172.694v30.424h10.14l-1.984-13.999 5.843-6.174z" fill="#665853"/><path d="M116.256 163.729l-14.697 8.966 15.493 15.433 11.51-17.912c0-.001-7.529-7.409-12.306-6.487zM86.861 163.729l14.697 8.966-15.492 15.433-11.51-17.912c.001-.001 7.529-7.409 12.305-6.487z" fill="#f2788f"/><path d="M164.611 28.659c-1.384-2.727-5.291-3.086-7.349-4.262-2.059-1.176-2.059-6.173-5.879-8.23-3.821-2.058-4.41 1.176-7.084.588-2.675-.588-5.263-5.879-8.792-7.055-3.53-1.177-6.759 1.176-9.404.587-2.645-.587-4.409-6.173-9.052-5.878-4.643.294-4.764 3.527-5.719 3.233C110.378 7.349 107.291 0 101.56 0c-5.732 0-8.819 7.349-9.774 7.643-.955.294-1.076-2.939-5.719-3.233-4.643-.295-6.406 5.291-9.052 5.878-2.646.589-5.874-1.764-9.404-.587-3.529 1.176-6.117 6.467-8.792 7.055-2.674.588-3.262-2.646-7.084-.588-3.82 2.058-3.82 7.055-5.878 8.23-2.059 1.176-5.965 1.535-7.35 4.262-4.997 9.848 3.944 79.298 7.8 79.298 3.855 0 1.607-35.353 7.486-48.874 5.878-13.521 28.513-1.764 47.767-1.764 19.253 0 41.887-11.758 47.767 1.764 5.878 13.521 3.63 48.874 7.485 48.874 3.855-.001 12.796-69.451 7.799-79.299z" fill="#4c2d19"/></svg><svg viewBox="0 0 196.651 196.651" width="196.651" height="196.651" id="man-1" x="399.29200000000003" y="644.6089999999999"><path fill="#fdcc9b" d="M83.628 146.386h29.395v32.923H83.628z"/><path d="M83.628 150.264s12.365 7.874 29.395 6.051v-9.929H83.628v3.878z" fill="#fcbc85"/><ellipse cx="41.242" cy="95.336" rx="14.343" ry="16.364" fill="#fcbc85"/><ellipse cx="155.409" cy="95.336" rx="14.343" ry="16.364" fill="#fcbc85"/><path d="M155.352 64.08c0-24.104-17.637-41.74-57.026-41.74S41.3 39.977 41.3 64.08c0 24.104-4.115 87.597 57.026 87.597 61.141 0 57.026-63.492 57.026-87.597z" fill="#fdcc9b"/><ellipse cx="70.55" cy="91.418" rx="6.173" ry="6.761" fill="#3b2519"/><circle cx="67.859" cy="88.433" r="1.846" fill="#fff"/><path d="M60.675 74.662c2.919 1.46 7.606-4.96 18.335.625 1.956 1.018 3.123-8.708-8.377-8.708-9.958 0-11.722 7.202-9.958 8.083z" fill="#86461b"/><ellipse cx="126.864" cy="91.418" rx="6.173" ry="6.761" fill="#3b2519"/><circle cx="124.173" cy="88.433" r="1.846" fill="#fff"/><path d="M135.977 74.662c-2.919 1.46-7.606-4.96-18.335.625-1.956 1.018-3.123-8.708 8.378-8.708 9.957 0 11.72 7.202 9.957 8.083z" fill="#86461b"/><path d="M98.326 115.198c-6.1 0-9.774-4.557-9.774-2.352 0 2.204 1.764 6.393 9.774 6.393s9.774-4.189 9.774-6.393c0-2.204-3.675 2.352-9.774 2.352zM98.326 135.469c-2.11 0-3.381-1.576-3.381-.813 0 .763.61 2.212 3.381 2.212s3.38-1.449 3.38-2.212c0-.763-1.271.813-3.38.813z" fill="#fcbc85"/><path d="M98.326 129.852c-9.668 0-15.493-3.937-15.493-2.939 0 .997 2.796 4.924 15.493 4.924 12.697 0 15.493-3.927 15.493-4.924-.001-.999-5.825 2.939-15.493 2.939z" fill="#f7945e"/><path d="M98.326 159.613v37.038H26.898c0-14.991 37.623-37.038 71.428-37.038z" fill="#d58e64"/><path d="M98.326 159.613v37.038h71.427c0-14.991-37.624-37.038-71.427-37.038z" fill="#d58e64"/><path d="M98.326 159.613c-7.19 0-14.552 1.005-21.689 2.721.048.063 7.917 10.213 21.689 10.213 12.754 0 21.233-8.692 22.462-10.03-7.378-1.831-15.013-2.904-22.462-2.904z" fill="#bf805a"/><path d="M83.628 160.895s4.299 5.332 14.697 5.332 14.698-5.332 14.698-5.332-15.249-5.551-29.395 0z" fill="#fdcc9b"/><path d="M98.325 139.11v13.669c-30.717 0-40.857-16.378-43.861-20.943-2.227-3.387 14.452 11.904 29.164 11.904 6.467 0 6.173-4.63 14.697-4.63z" fill="#86461b"/><path d="M98.325 139.11v13.669c30.718 0 40.858-16.378 43.861-20.943 2.227-3.387-14.452 11.904-29.164 11.904-6.466 0-6.172-4.63-14.697-4.63zM98.712 48.207V0C48.354 0 38.948 18.813 36.596 54.086c-2.352 35.274 2.958 47.417 6.476 47.372 3.518-.046 1.627-40.44 6.458-49.136 8.819-15.873 24.583-4.115 49.182-4.115zM98.712 48.207V0c50.358 0 59.764 18.813 62.116 54.086 2.352 35.274-2.958 47.417-6.476 47.372-3.518-.046-1.627-40.44-6.458-49.136-8.818-15.873-24.583-4.115-49.182-4.115z" fill="#86461b"/><path d="M67.014 165.109c-22.206 7.502-40.115 21.199-40.115 31.542h40.117v-31.542h-.002z" fill="#744a25"/><path d="M69.151 196.651v-33.805s-5.732 2.205-7.716 3.233l-5.85 30.571h13.566z" fill="#573514"/><path d="M129.638 165.109c22.206 7.502 40.115 21.199 40.115 31.542h-40.117v-31.542h.002z" fill="#744a25"/><path d="M127.5 196.651v-33.805s5.732 2.205 7.716 3.233l5.85 30.571H127.5z" fill="#573514"/></svg></svg>